<svg xmlns="http://www.w3.org/2000/svg" viewBox="0 0 2000 480.26"><defs><style>.cls-1{opacity:0.85;font-size:72px;fill:#fff;font-family:MyriadPro-Bold, Myriad Pro;font-weight:700;}.cls-2{letter-spacing:0em;}.cls-3{fill:#4f4e4e;}.cls-4{fill:#f8a12c;}.cls-5{fill:#00b9b4;}.cls-6{fill:#fe4812;}</style></defs><g id="RGB"><text class="cls-1" transform="translate(0 -44.57)"><tspan class="cls-2">R</tspan><tspan x="42.41" y="0">GB</tspan></text><path class="cls-3" d="M636.68,165.61a34.36,34.36,0,0,1,16.17,3.69,31.08,31.08,0,0,1,11.38,10,29.8,29.8,0,0,1,5.13,14.05H654.63a22.79,22.79,0,0,0-3.19-8.21,17.11,17.11,0,0,0-6.1-5.73,18.28,18.28,0,0,0-9.06-2.12,19.45,19.45,0,0,0-11.21,3.13q-4.62,3.12-7.06,9.89t-2.43,17.55q0,16.33,5.39,23.79t15.31,7.46a17,17,0,0,0,9.06-2.33,17.9,17.9,0,0,0,6.1-6.19,25.29,25.29,0,0,0,3.19-8.46h14.73a40.7,40.7,0,0,1-2.83,10.79,29.63,29.63,0,0,1-6,9.2,27.23,27.23,0,0,1-9.78,6.36,38.08,38.08,0,0,1-14,2.32q-11.41,0-19.58-5.24a33.82,33.82,0,0,1-12.56-14.92q-4.38-9.65-4.38-23T604.51,185A32.37,32.37,0,0,1,617,170.63Q625.22,165.61,636.68,165.61Z"/><path class="cls-3" d="M699.81,250.81a23.93,23.93,0,0,1-10.18-2.09,16.5,16.5,0,0,1-7-6,17.16,17.16,0,0,1-2.55-9.55q0-9.81,7.08-14.79t22.62-5.22l8.83-.23v-4a9.74,9.74,0,0,0-2.78-7.37c-1.86-1.78-4.73-2.65-8.63-2.61a16.36,16.36,0,0,0-7.88,2,9.76,9.76,0,0,0-4.74,6.61H682.67a17.79,17.79,0,0,1,3.52-10.17,19,19,0,0,1,8.74-6.14,37.55,37.55,0,0,1,12.85-2q8.49,0,13.82,2.24a15.91,15.91,0,0,1,7.85,6.44A19.42,19.42,0,0,1,732,208.09v41.57H720.23L719.14,239q-3.23,6.7-8.12,9.26A23.93,23.93,0,0,1,699.81,250.81Zm4.53-9.45a14.43,14.43,0,0,0,5.1-1,16.85,16.85,0,0,0,4.59-2.59,14.21,14.21,0,0,0,3.3-3.63,8,8,0,0,0,1.23-4.2v-9.34l-7.28.12a38.16,38.16,0,0,0-9.41,1.14,13.17,13.17,0,0,0-6.27,3.47,8.77,8.77,0,0,0-2.27,6.33,8.61,8.61,0,0,0,3.15,7.09A12.11,12.11,0,0,0,704.34,241.36Z"/><path class="cls-3" d="M749.47,249.66V190.38h13.65v8.48a19.33,19.33,0,0,1,3.76-4.41,18.15,18.15,0,0,1,5.88-3.44,22.92,22.92,0,0,1,8.19-1.32,24.39,24.39,0,0,1,10.24,2.17,17.5,17.5,0,0,1,7.63,6.83q2.88,4.65,2.89,12v39h-14V212.34q0-5.85-3.21-8.69a11.77,11.77,0,0,0-8.08-2.84,17.78,17.78,0,0,0-6.32,1.12,11.37,11.37,0,0,0-4.84,3.38,8.6,8.6,0,0,0-1.86,5.65v38.7Z"/><path class="cls-3" d="M834.28,250.81a23.93,23.93,0,0,1-10.18-2.09,16.58,16.58,0,0,1-7.06-6,17.16,17.16,0,0,1-2.55-9.55q0-9.81,7.09-14.79t22.61-5.22l8.84-.23v-4a9.74,9.74,0,0,0-2.78-7.37c-1.86-1.78-4.73-2.65-8.63-2.61a16.42,16.42,0,0,0-7.89,2,9.78,9.78,0,0,0-4.73,6.61H817.13a17.8,17.8,0,0,1,3.53-10.17,19,19,0,0,1,8.74-6.14,37.45,37.45,0,0,1,12.84-2q8.49,0,13.83,2.24a15.91,15.91,0,0,1,7.85,6.44,19.42,19.42,0,0,1,2.53,10.18v41.57H854.69L853.6,239q-3.21,6.7-8.11,9.26A24,24,0,0,1,834.28,250.81Zm4.53-9.45a14.43,14.43,0,0,0,5.1-1,17,17,0,0,0,4.59-2.59,14.16,14.16,0,0,0,3.29-3.63A8,8,0,0,0,853,230v-9.34l-7.28.12a38.1,38.1,0,0,0-9.41,1.14,13.26,13.26,0,0,0-6.28,3.47,8.81,8.81,0,0,0-2.26,6.33A8.61,8.61,0,0,0,831,238.8,12.09,12.09,0,0,0,838.81,241.36Z"/><path class="cls-3" d="M905.66,250.81q-11.76,0-18.47-8.08c-4.46-5.4-6.7-13-6.7-23a43.71,43.71,0,0,1,2.72-16.14,23,23,0,0,1,8-10.61,22.21,22.21,0,0,1,13.16-3.75,23.69,23.69,0,0,1,6.68.88,23,23,0,0,1,5.36,2.33,19.35,19.35,0,0,1,4,3.15A16.13,16.13,0,0,1,923,199V164.46h14v85.2H926.65l-1.55-12.15a23.39,23.39,0,0,1-2,4.45,17.41,17.41,0,0,1-3.61,4.32,17.69,17.69,0,0,1-5.65,3.27A23.09,23.09,0,0,1,905.66,250.81Zm2.87-10.26q7.5,0,11-4.91T923,219.39a34.94,34.94,0,0,0-1.58-10.9,13.17,13.17,0,0,0-4.64-6.65,13.62,13.62,0,0,0-8.06-2.23,13.21,13.21,0,0,0-10.38,4.64q-4.08,4.65-4.07,15.14t3.73,15.8A12.1,12.1,0,0,0,908.53,240.55Z"/><path class="cls-3" d="M971.15,166.81V180H957.33V166.81ZM971,190.38v59.28H957.56V190.38Z"/><path class="cls-3" d="M1005.72,250.81a23.93,23.93,0,0,1-10.18-2.09,16.5,16.5,0,0,1-7-6,17.16,17.16,0,0,1-2.55-9.55q0-9.81,7.08-14.79t22.62-5.22l8.83-.23v-4a9.74,9.74,0,0,0-2.78-7.37c-1.86-1.78-4.73-2.65-8.63-2.61a16.36,16.36,0,0,0-7.88,2,9.76,9.76,0,0,0-4.74,6.61H988.58a17.72,17.72,0,0,1,3.52-10.17,19,19,0,0,1,8.74-6.14,37.55,37.55,0,0,1,12.85-2q8.49,0,13.82,2.24a15.91,15.91,0,0,1,7.85,6.44,19.42,19.42,0,0,1,2.53,10.18v41.57h-11.75L1025.05,239q-3.22,6.7-8.12,9.26A23.93,23.93,0,0,1,1005.72,250.81Zm4.53-9.45a14.43,14.43,0,0,0,5.1-1,16.85,16.85,0,0,0,4.59-2.59,14.21,14.21,0,0,0,3.3-3.63,8,8,0,0,0,1.23-4.2v-9.34l-7.28.12a38.16,38.16,0,0,0-9.41,1.14,13.17,13.17,0,0,0-6.27,3.47,8.77,8.77,0,0,0-2.27,6.33,8.61,8.61,0,0,0,3.15,7.09A12.11,12.11,0,0,0,1010.25,241.36Z"/><path class="cls-3" d="M1055.37,249.66V190.38H1069v8.48a19.33,19.33,0,0,1,3.76-4.41,18.15,18.15,0,0,1,5.88-3.44,22.92,22.92,0,0,1,8.19-1.32,24.39,24.39,0,0,1,10.24,2.17,17.42,17.42,0,0,1,7.62,6.83q2.89,4.65,2.9,12v39h-14V212.34q0-5.85-3.21-8.69a11.77,11.77,0,0,0-8.08-2.84,17.78,17.78,0,0,0-6.32,1.12,11.37,11.37,0,0,0-4.84,3.38,8.6,8.6,0,0,0-1.86,5.65v38.7Z"/><path class="cls-3" d="M636.68,280.29a34.24,34.24,0,0,1,16.17,3.7,31,31,0,0,1,11.38,10A29.8,29.8,0,0,1,669.36,308H654.63a22.66,22.66,0,0,0-3.19-8.2,16.94,16.94,0,0,0-6.1-5.73,18.17,18.17,0,0,0-9.06-2.12,19.52,19.52,0,0,0-11.21,3.12q-4.62,3.12-7.06,9.89t-2.43,17.55q0,16.35,5.39,23.8t15.31,7.45a17,17,0,0,0,9.06-2.32,18.07,18.07,0,0,0,6.1-6.19,25.45,25.45,0,0,0,3.19-8.46h14.73a40.62,40.62,0,0,1-2.83,10.78,29.63,29.63,0,0,1-6,9.2,27.39,27.39,0,0,1-9.78,6.37,38.29,38.29,0,0,1-14,2.32q-11.41,0-19.58-5.25a33.85,33.85,0,0,1-12.56-14.91q-4.38-9.66-4.38-23t4.35-22.65A32.34,32.34,0,0,1,617,285.31Q625.22,280.28,636.68,280.29Z"/><path class="cls-3" d="M684.21,364.35V279.14H698v34.52a20.73,20.73,0,0,1,3.78-4.33,19.16,19.16,0,0,1,5.76-3.44,22.22,22.22,0,0,1,8.17-1.35,24.25,24.25,0,0,1,10.38,2.18,18.21,18.21,0,0,1,7.52,6.28,16.88,16.88,0,0,1,2.81,9.78v41.57h-14V325.13a8.51,8.51,0,0,0-3.23-7.11A12.86,12.86,0,0,0,711,315.5a17.2,17.2,0,0,0-6.26,1.14,11,11,0,0,0-4.79,3.42,8.76,8.76,0,0,0-1.8,5.64v38.65Z"/><path class="cls-3" d="M769,365.5a24,24,0,0,1-10.18-2.1,16.43,16.43,0,0,1-7-6,17.14,17.14,0,0,1-2.55-9.55q0-9.79,7.08-14.79t22.62-5.21l8.83-.24v-4a9.7,9.7,0,0,0-2.78-7.37c-1.86-1.77-4.73-2.65-8.63-2.61a16.5,16.5,0,0,0-7.88,2,9.79,9.79,0,0,0-4.74,6.62H751.83a17.68,17.68,0,0,1,3.53-10.17A18.85,18.85,0,0,1,764.1,306a37.2,37.2,0,0,1,12.84-2q8.49,0,13.82,2.24a15.94,15.94,0,0,1,7.86,6.44,19.54,19.54,0,0,1,2.52,10.19v41.57H789.39l-1.09-10.66q-3.22,6.71-8.12,9.25A23.9,23.9,0,0,1,769,365.5ZM773.5,356a14.48,14.48,0,0,0,5.11-1,16.76,16.76,0,0,0,4.58-2.58,14.06,14.06,0,0,0,3.3-3.64,7.92,7.92,0,0,0,1.23-4.19v-9.35l-7.28.12a38,38,0,0,0-9.4,1.14,13.38,13.38,0,0,0-6.28,3.47,8.82,8.82,0,0,0-2.27,6.34,8.6,8.6,0,0,0,3.15,7.08A12.13,12.13,0,0,0,773.5,356Z"/><path class="cls-3" d="M818.62,364.35V305.06h13.6v8.48a23.8,23.8,0,0,1,7-6.76,20.53,20.53,0,0,1,11.32-2.87A20.2,20.2,0,0,1,857,305a20.49,20.49,0,0,1,6,3.22,15.66,15.66,0,0,1,4.44,5.27,22.18,22.18,0,0,1,7.49-6.88,20.62,20.62,0,0,1,10.52-2.7,23.06,23.06,0,0,1,6.62,1,17.69,17.69,0,0,1,6.28,3.44A17.36,17.36,0,0,1,903,315a26.68,26.68,0,0,1,1.77,10.4v39H890.82V327a13.29,13.29,0,0,0-1.55-6.94,8.84,8.84,0,0,0-4-3.59,13,13,0,0,0-5.2-1.05,14.92,14.92,0,0,0-5.13,1,10.55,10.55,0,0,0-4.53,3.21,9.15,9.15,0,0,0-1.86,6v38.7H854.63V324.78a8.15,8.15,0,0,0-1.6-5.16,10.39,10.39,0,0,0-4-3.13,12.45,12.45,0,0,0-5-1.05,13.93,13.93,0,0,0-5.25,1.08,10.94,10.94,0,0,0-4.44,3.33,9,9,0,0,0-1.78,5.8v38.7Z"/><path class="cls-3" d="M952.17,365.5a23.12,23.12,0,0,1-8.14-1.27,17.86,17.86,0,0,1-5.65-3.26,17.44,17.44,0,0,1-3.61-4.33,23.12,23.12,0,0,1-2-4.45l-1.6,12.16H920.86V279.14h14v34.57a16.13,16.13,0,0,1,2.55-3.44,19,19,0,0,1,4-3.14,22.77,22.77,0,0,1,5.36-2.33,23.68,23.68,0,0,1,6.68-.89q11.07,0,17.49,7.86t6.42,22.64a43.3,43.3,0,0,1-2.83,16.34,23.72,23.72,0,0,1-8.43,10.88C962.35,364.2,957.71,365.5,952.17,365.5Zm-2.87-10.27a12.65,12.65,0,0,0,10.27-5q4-5,4-16.17,0-9.76-3.78-14.78t-10.67-5a13.61,13.61,0,0,0-8.06,2.22,13.17,13.17,0,0,0-4.64,6.65,35,35,0,0,0-1.58,10.91q0,11.34,3.47,16.25T949.3,355.23Z"/><path class="cls-3" d="M1001.83,337.92a21.91,21.91,0,0,0,1.6,8.94,13.52,13.52,0,0,0,4.93,6.1,14.08,14.08,0,0,0,8.09,2.21A16.13,16.13,0,0,0,1025,353a10.71,10.71,0,0,0,4.85-6.73h12.78a20.08,20.08,0,0,1-4.93,10.49,25.34,25.34,0,0,1-9.43,6.54,32,32,0,0,1-26.61-1.41,25.43,25.43,0,0,1-10.15-10.4,33.66,33.66,0,0,1-3.64-16.12,37.67,37.67,0,0,1,3.33-16.2,26.3,26.3,0,0,1,9.6-11.15,27.13,27.13,0,0,1,15.11-4.07q8.77,0,14.77,3.73a23.52,23.52,0,0,1,9.06,10.4,37.22,37.22,0,0,1,3.07,15.63v4.25Zm0-8.67h27.81a19.61,19.61,0,0,0-1.49-7.77,12.28,12.28,0,0,0-4.56-5.49,13.58,13.58,0,0,0-7.71-2,13.08,13.08,0,0,0-7.75,2.23,14.19,14.19,0,0,0-4.76,5.76A17,17,0,0,0,1001.83,329.25Z"/><path class="cls-3" d="M1056.93,364.35V305.06h13.37V317.9a21.74,21.74,0,0,1,4.09-7.53,18.28,18.28,0,0,1,6.29-4.8,19.19,19.19,0,0,1,9.86-1.55,3.6,3.6,0,0,1,1.43.41v13.36a5,5,0,0,0-1.63-.4,15,15,0,0,0-1.75-.12,27.23,27.23,0,0,0-7.6.34,14.42,14.42,0,0,0-5.56,2.33,10.2,10.2,0,0,0-3.41,4.13,13.69,13.69,0,0,0-1.15,5.81v34.47Z"/><path class="cls-3" d="M1153.67,365.5a29,29,0,0,1-14.8-3.65,24.64,24.64,0,0,1-9.78-10.46,35.84,35.84,0,0,1-3.46-16.4A37.23,37.23,0,0,1,1129,318.7a25.39,25.39,0,0,1,9.66-10.89,31,31,0,0,1,29.82-.17,24.75,24.75,0,0,1,9.66,10.67,37.5,37.5,0,0,1,3.41,16.68,36.91,36.91,0,0,1-3.23,15.86,25.06,25.06,0,0,1-9.47,10.75A28.08,28.08,0,0,1,1153.67,365.5Zm0-10.61a11.85,11.85,0,0,0,7.94-2.64,15.58,15.58,0,0,0,4.65-7.23,33.14,33.14,0,0,0,1.52-10.43,35.36,35.36,0,0,0-1.35-10,15.37,15.37,0,0,0-4.47-7.37,12,12,0,0,0-8.29-2.78,12.52,12.52,0,0,0-8.06,2.54,15.39,15.39,0,0,0-4.76,7.12,32.43,32.43,0,0,0-1.57,10.52,34,34,0,0,0,1.41,10,16.06,16.06,0,0,0,4.55,7.46A12.16,12.16,0,0,0,1153.72,354.89Z"/><path class="cls-3" d="M1226.09,305.06v9.86h-13.36v49.43H1198.8V314.92h-11.7v-9.86h11.7v-8.84c0-4.73,1.3-8.39,3.92-10.94s6.42-3.85,11.38-3.85h12.51l.05,9.52h-8.25c-2.26,0-3.81.59-4.65,1.75s-1.26,3-1.26,5.48v6.88Z"/><path class="cls-3" d="M636.68,395a34.24,34.24,0,0,1,16.17,3.7,30.9,30.9,0,0,1,11.38,10,29.73,29.73,0,0,1,5.13,14.05H654.63a22.64,22.64,0,0,0-3.19-8.21,17,17,0,0,0-6.1-5.73,18.17,18.17,0,0,0-9.06-2.12,19.45,19.45,0,0,0-11.21,3.13q-4.62,3.1-7.06,9.88t-2.43,17.56q0,16.33,5.39,23.79t15.31,7.45a17,17,0,0,0,9.06-2.32,18,18,0,0,0,6.1-6.19,25.45,25.45,0,0,0,3.19-8.46h14.73a40.53,40.53,0,0,1-2.83,10.78,29.68,29.68,0,0,1-6,9.21,27.5,27.5,0,0,1-9.78,6.36,38.08,38.08,0,0,1-14,2.32q-11.41,0-19.58-5.24A33.88,33.88,0,0,1,604.54,460q-4.38-9.64-4.38-23t4.35-22.65A32.39,32.39,0,0,1,617,400Q625.22,395,636.68,395Z"/><path class="cls-3" d="M708.87,480.18a29,29,0,0,1-14.79-3.64,24.66,24.66,0,0,1-9.78-10.47,35.8,35.8,0,0,1-3.47-16.39,37.2,37.2,0,0,1,3.36-16.29,25.3,25.3,0,0,1,9.66-10.9,31,31,0,0,1,29.82-.17A24.87,24.87,0,0,1,733.33,433a37.52,37.52,0,0,1,3.41,16.69,36.72,36.72,0,0,1-3.24,15.85A25,25,0,0,1,724,476.28Q717.82,480.18,708.87,480.18Zm.06-10.61a11.82,11.82,0,0,0,7.94-2.64,15.59,15.59,0,0,0,4.64-7.22A33,33,0,0,0,723,449.27a35.46,35.46,0,0,0-1.35-10,15.42,15.42,0,0,0-4.47-7.37,12,12,0,0,0-8.29-2.78,12.48,12.48,0,0,0-8.06,2.55,15.26,15.26,0,0,0-4.76,7.11,32.2,32.2,0,0,0-1.57,10.52,34.5,34.5,0,0,0,1.4,10,16.12,16.12,0,0,0,4.56,7.45A12.13,12.13,0,0,0,708.93,469.57Z"/><path class="cls-3" d="M750.27,479V419.74h13.59v8.48a23.72,23.72,0,0,1,7-6.76q4.44-2.86,11.32-2.87a20.14,20.14,0,0,1,6.39,1.09,20.78,20.78,0,0,1,6,3.22,15.76,15.76,0,0,1,4.44,5.27,22.14,22.14,0,0,1,7.48-6.88,20.69,20.69,0,0,1,10.53-2.7,23.16,23.16,0,0,1,6.62,1,17.78,17.78,0,0,1,6.28,3.44,17.24,17.24,0,0,1,4.64,6.57A26.69,26.69,0,0,1,836.4,440v39H822.47V441.7a13.29,13.29,0,0,0-1.55-6.94,8.74,8.74,0,0,0-4-3.58,12.78,12.78,0,0,0-5.19-1.06,14.71,14.71,0,0,0-5.13,1,10.55,10.55,0,0,0-4.53,3.2,9.17,9.17,0,0,0-1.86,6V479H786.28V439.47a8.18,8.18,0,0,0-1.6-5.17,10.28,10.28,0,0,0-4-3.12,12.31,12.31,0,0,0-5-1.06,13.9,13.9,0,0,0-5.24,1.09,10.7,10.7,0,0,0-4.44,3.33,9,9,0,0,0-1.78,5.79V479Z"/><path class="cls-3" d="M852.51,479V419.74H866.1v8.48a23.8,23.8,0,0,1,7-6.76,20.57,20.57,0,0,1,11.33-2.87,20.14,20.14,0,0,1,6.39,1.09,20.73,20.73,0,0,1,6,3.22,15.78,15.78,0,0,1,4.45,5.27,22,22,0,0,1,7.48-6.88,20.62,20.62,0,0,1,10.52-2.7,23.06,23.06,0,0,1,6.62,1,17.69,17.69,0,0,1,6.28,3.44,17.26,17.26,0,0,1,4.65,6.57A26.69,26.69,0,0,1,938.64,440v39H924.7V441.7a13.39,13.39,0,0,0-1.54-6.94,8.84,8.84,0,0,0-4-3.58,12.82,12.82,0,0,0-5.19-1.06,14.63,14.63,0,0,0-5.13,1,10.64,10.64,0,0,0-4.54,3.2,9.17,9.17,0,0,0-1.86,6V479H888.52V439.47a8.18,8.18,0,0,0-1.61-5.17,10.14,10.14,0,0,0-4-3.12,12.3,12.3,0,0,0-5-1.06,13.86,13.86,0,0,0-5.24,1.09,10.73,10.73,0,0,0-4.45,3.33,9,9,0,0,0-1.77,5.79V479Z"/><path class="cls-3" d="M965.7,452.6a21.91,21.91,0,0,0,1.6,8.94,13.67,13.67,0,0,0,4.93,6.11,14.15,14.15,0,0,0,8.09,2.21,16.22,16.22,0,0,0,8.57-2.21,10.77,10.77,0,0,0,4.85-6.73h12.79a20.17,20.17,0,0,1-4.94,10.48,25.22,25.22,0,0,1-9.43,6.54,32,32,0,0,1-26.6-1.4,25.48,25.48,0,0,1-10.16-10.41A33.66,33.66,0,0,1,951.77,450a37.67,37.67,0,0,1,3.32-16.2,26.24,26.24,0,0,1,9.61-11.14,27.07,27.07,0,0,1,15.1-4.08q8.78,0,14.77,3.73a23.57,23.57,0,0,1,9.06,10.4,37.1,37.1,0,0,1,3.07,15.63v4.25Zm0-8.67h27.81a19.56,19.56,0,0,0-1.49-7.76,12.3,12.3,0,0,0-4.56-5.5,13.58,13.58,0,0,0-7.71-2,13.1,13.1,0,0,0-7.74,2.23,14,14,0,0,0-4.76,5.76A16.87,16.87,0,0,0,965.7,443.93Z"/><path class="cls-3" d="M1020.8,479V419.74h13.36v12.84a21.85,21.85,0,0,1,4.1-7.53,18.24,18.24,0,0,1,6.28-4.8,18.71,18.71,0,0,1,7.86-1.66,16.28,16.28,0,0,1,2,.12,3.68,3.68,0,0,1,1.44.4v13.36a5.39,5.39,0,0,0-1.63-.4,15.27,15.27,0,0,0-1.76-.12,27.12,27.12,0,0,0-7.59.35,14.52,14.52,0,0,0-5.57,2.32,10.35,10.35,0,0,0-3.41,4.13,13.89,13.89,0,0,0-1.14,5.82V479Z"/><path class="cls-3" d="M1091.45,418.59a26.11,26.11,0,0,1,12.22,2.75,22.24,22.24,0,0,1,8.45,7.64,24.31,24.31,0,0,1,3.81,11.06H1104a13.21,13.21,0,0,0-2-5.14,11.88,11.88,0,0,0-4.19-3.95,12.55,12.55,0,0,0-6.36-1.51,13.49,13.49,0,0,0-10.81,4.92q-4.15,4.93-4.16,15.14,0,9.42,4,15t11.29,5.56a11.62,11.62,0,0,0,6.29-1.63,13,13,0,0,0,4.13-4.07,14.11,14.11,0,0,0,2-4.91h11.59a21.89,21.89,0,0,1-3.76,10.72,22.47,22.47,0,0,1-8.49,7.37,26.23,26.23,0,0,1-12.07,2.67A28.84,28.84,0,0,1,1077,476.6a25.18,25.18,0,0,1-10-10.44,35.16,35.16,0,0,1-3.61-16.54,36.75,36.75,0,0,1,3.38-16.2,25.81,25.81,0,0,1,9.7-10.9A27.78,27.78,0,0,1,1091.45,418.59Z"/><path class="cls-3" d="M1138.58,452.6a21.91,21.91,0,0,0,1.61,8.94,13.61,13.61,0,0,0,4.93,6.11,14.12,14.12,0,0,0,8.08,2.21,16.26,16.26,0,0,0,8.58-2.21,10.75,10.75,0,0,0,4.84-6.73h12.79a20.16,20.16,0,0,1-4.93,10.48,25.18,25.18,0,0,1-9.44,6.54,32,32,0,0,1-26.6-1.4,25.52,25.52,0,0,1-10.15-10.41,33.54,33.54,0,0,1-3.64-16.12,37.67,37.67,0,0,1,3.32-16.2,26.31,26.31,0,0,1,9.61-11.14,27.13,27.13,0,0,1,15.11-4.08q8.77,0,14.76,3.73a23.45,23.45,0,0,1,9.06,10.4,37.1,37.1,0,0,1,3.07,15.63v4.25Zm0-8.67h27.81a19.56,19.56,0,0,0-1.49-7.76,12.22,12.22,0,0,0-4.55-5.5,13.59,13.59,0,0,0-7.72-2,13.1,13.1,0,0,0-7.74,2.23,14.19,14.19,0,0,0-4.76,5.76A16.87,16.87,0,0,0,1138.58,443.93Z"/><path class="cls-3" d="M1386.9,165.61a34.36,34.36,0,0,1,16.17,3.69,31.08,31.08,0,0,1,11.38,10,29.8,29.8,0,0,1,5.13,14.05h-14.73a23,23,0,0,0-3.18-8.21,17.23,17.23,0,0,0-6.11-5.73,18.28,18.28,0,0,0-9.06-2.12,19.47,19.47,0,0,0-11.21,3.13q-4.62,3.12-7.06,9.89t-2.43,17.55q0,16.33,5.39,23.79t15.31,7.46a17,17,0,0,0,9.06-2.33,18,18,0,0,0,6.11-6.19,25.48,25.48,0,0,0,3.18-8.46h14.73a40.7,40.7,0,0,1-2.83,10.79,29.63,29.63,0,0,1-6,9.2,27.23,27.23,0,0,1-9.78,6.36,38.08,38.08,0,0,1-14,2.32q-11.42,0-19.58-5.24a33.82,33.82,0,0,1-12.56-14.92q-4.38-9.65-4.38-23t4.35-22.66a32.43,32.43,0,0,1,12.53-14.41Q1375.44,165.61,1386.9,165.61Z"/><path class="cls-3" d="M1434.43,249.66v-85.2h13.77V199a20.77,20.77,0,0,1,3.78-4.34,19.57,19.57,0,0,1,5.76-3.44,22.44,22.44,0,0,1,8.17-1.34,24.25,24.25,0,0,1,10.38,2.18,18.07,18.07,0,0,1,7.52,6.28,16.87,16.87,0,0,1,2.81,9.77v41.57h-14V210.44a8.47,8.47,0,0,0-3.23-7.1,12.87,12.87,0,0,0-8.17-2.53A17.41,17.41,0,0,0,1455,202a11.21,11.21,0,0,0-4.79,3.42,8.81,8.81,0,0,0-1.8,5.65v38.64Z"/><path class="cls-3" d="M1519.19,250.81a24,24,0,0,1-10.18-2.09,16.5,16.5,0,0,1-7-6,17.16,17.16,0,0,1-2.55-9.55q0-9.81,7.08-14.79t22.62-5.22l8.83-.23v-4a9.7,9.7,0,0,0-2.78-7.37q-2.78-2.67-8.63-2.61a16.39,16.39,0,0,0-7.88,2,9.75,9.75,0,0,0-4.73,6.61h-11.87a17.73,17.73,0,0,1,3.53-10.17,18.92,18.92,0,0,1,8.74-6.14,37.45,37.45,0,0,1,12.84-2q8.49,0,13.82,2.24a15.89,15.89,0,0,1,7.86,6.44,19.51,19.51,0,0,1,2.52,10.18v41.57h-11.75L1538.52,239q-3.21,6.7-8.12,9.26A23.9,23.9,0,0,1,1519.19,250.81Zm4.53-9.45a14.44,14.44,0,0,0,5.11-1,16.79,16.79,0,0,0,4.58-2.59,14,14,0,0,0,3.3-3.63,8,8,0,0,0,1.23-4.2v-9.34l-7.28.12a38,38,0,0,0-9.4,1.14,13.21,13.21,0,0,0-6.28,3.47,8.82,8.82,0,0,0-2.27,6.33,8.61,8.61,0,0,0,3.15,7.09A12.13,12.13,0,0,0,1523.72,241.36Z"/><path class="cls-3" d="M1568.84,249.66V190.38h13.6v8.48a23.56,23.56,0,0,1,7-6.76q4.44-2.88,11.32-2.87a19.88,19.88,0,0,1,6.4,1.09,20.7,20.7,0,0,1,6,3.21,15.79,15.79,0,0,1,4.44,5.28,22.3,22.3,0,0,1,7.49-6.89,20.62,20.62,0,0,1,10.52-2.69,22.72,22.72,0,0,1,6.62,1,17.69,17.69,0,0,1,6.28,3.44,17.32,17.32,0,0,1,4.65,6.56,26.7,26.7,0,0,1,1.77,10.41v39H1641V212.34a13.36,13.36,0,0,0-1.55-7,8.82,8.82,0,0,0-4-3.58,13,13,0,0,0-5.2-1.06,15,15,0,0,0-5.13,1,10.55,10.55,0,0,0-4.53,3.21,9.12,9.12,0,0,0-1.86,6v38.7h-13.93V210.1a8.13,8.13,0,0,0-1.61-5.16,10.21,10.21,0,0,0-4-3.13,12.47,12.47,0,0,0-5-1.06,14,14,0,0,0-5.25,1.09,10.77,10.77,0,0,0-4.44,3.33,9,9,0,0,0-1.78,5.79v38.7Z"/><path class="cls-3" d="M1702.39,250.81a23.13,23.13,0,0,1-8.14-1.26,17.69,17.69,0,0,1-5.65-3.27A17.41,17.41,0,0,1,1685,242a23.39,23.39,0,0,1-2-4.45l-1.6,12.15h-10.27v-85.2h14V199a16.84,16.84,0,0,1,2.55-3.44,19.35,19.35,0,0,1,4-3.15,23.19,23.19,0,0,1,5.36-2.33,23.69,23.69,0,0,1,6.68-.88q11.07,0,17.49,7.86t6.42,22.64a43.3,43.3,0,0,1-2.83,16.34A23.77,23.77,0,0,1,1716.3,247Q1710.71,250.81,1702.39,250.81Zm-2.87-10.26a12.63,12.63,0,0,0,10.27-5q4-5,4-16.17,0-9.75-3.78-14.77a12.6,12.6,0,0,0-10.67-5,13.58,13.58,0,0,0-8,2.23,13.12,13.12,0,0,0-4.65,6.65,34.94,34.94,0,0,0-1.58,10.9q0,11.36,3.47,16.25T1699.52,240.55Z"/><path class="cls-3" d="M1741.09,249.66V190.38h13.37v12.84a21.79,21.79,0,0,1,4.09-7.54,18.25,18.25,0,0,1,6.29-4.79,18.63,18.63,0,0,1,7.85-1.66,18.89,18.89,0,0,1,2,.11,3.44,3.44,0,0,1,1.43.41V203.1a5.41,5.41,0,0,0-1.63-.39,15.2,15.2,0,0,0-1.75-.13,27.2,27.2,0,0,0-7.6.35,14.41,14.41,0,0,0-5.56,2.32,10.22,10.22,0,0,0-3.41,4.14,13.69,13.69,0,0,0-1.15,5.81v34.46Z"/><path class="cls-3" d="M1798.1,223.23a21.88,21.88,0,0,0,1.6,8.94,13.62,13.62,0,0,0,4.93,6.11,14.08,14.08,0,0,0,8.09,2.21,16.13,16.13,0,0,0,8.57-2.21,10.77,10.77,0,0,0,4.85-6.73h12.79A20.2,20.2,0,0,1,1834,242a25.2,25.2,0,0,1-9.43,6.53,32,32,0,0,1-26.6-1.4,25.42,25.42,0,0,1-10.16-10.41,33.62,33.62,0,0,1-3.64-16.11,37.64,37.64,0,0,1,3.33-16.2,26.27,26.27,0,0,1,9.61-11.15,27.07,27.07,0,0,1,15.1-4.07q8.77,0,14.77,3.72a23.6,23.6,0,0,1,9.06,10.41A37.07,37.07,0,0,1,1839.1,219v4.24Zm0-8.66h27.81a19.61,19.61,0,0,0-1.49-7.77,12.36,12.36,0,0,0-4.56-5.5,13.66,13.66,0,0,0-7.71-2,13,13,0,0,0-7.74,2.23,14,14,0,0,0-4.76,5.76A16.81,16.81,0,0,0,1798.1,214.57Z"/><path class="cls-3" d="M1899.76,250.81q-11.76,0-18.46-8.08c-4.47-5.4-6.71-13-6.71-23a43.71,43.71,0,0,1,2.72-16.14,23,23,0,0,1,8-10.61,22.23,22.23,0,0,1,13.16-3.75,23.59,23.59,0,0,1,6.68.88,23,23,0,0,1,5.36,2.33,19.35,19.35,0,0,1,4,3.15,16.13,16.13,0,0,1,2.55,3.44V164.46h14v85.2h-10.32l-1.55-12.15a23.39,23.39,0,0,1-2,4.45,17.41,17.41,0,0,1-3.61,4.32,17.69,17.69,0,0,1-5.65,3.27A23.09,23.09,0,0,1,1899.76,250.81Zm2.87-10.26q7.5,0,11-4.91t3.47-16.25a34.94,34.94,0,0,0-1.58-10.9,13.17,13.17,0,0,0-4.64-6.65,13.62,13.62,0,0,0-8.06-2.23,13.21,13.21,0,0,0-10.38,4.64q-4.07,4.65-4.07,15.14t3.73,15.8A12.1,12.1,0,0,0,1902.63,240.55Z"/><path class="cls-3" d="M1959,223.23a21.88,21.88,0,0,0,1.6,8.94,13.57,13.57,0,0,0,4.94,6.11,14,14,0,0,0,8.08,2.21,16.13,16.13,0,0,0,8.57-2.21,10.77,10.77,0,0,0,4.85-6.73h12.79a20.13,20.13,0,0,1-4.94,10.49,25.2,25.2,0,0,1-9.43,6.53,32,32,0,0,1-26.6-1.4,25.33,25.33,0,0,1-10.15-10.41,33.5,33.5,0,0,1-3.64-16.11,37.64,37.64,0,0,1,3.32-16.2A26.33,26.33,0,0,1,1958,193.3a27.1,27.1,0,0,1,15.11-4.07q8.78,0,14.76,3.72a23.54,23.54,0,0,1,9.06,10.41A37.07,37.07,0,0,1,2000,219v4.24Zm0-8.66h27.81a19.61,19.61,0,0,0-1.49-7.77,12.29,12.29,0,0,0-4.56-5.5,13.61,13.61,0,0,0-7.71-2,13,13,0,0,0-7.74,2.23,14,14,0,0,0-4.76,5.76A16.81,16.81,0,0,0,1959,214.57Z"/><path class="cls-3" d="M1386.9,280.29a34.24,34.24,0,0,1,16.17,3.7,31,31,0,0,1,11.38,10,29.8,29.8,0,0,1,5.13,14.05h-14.73a22.83,22.83,0,0,0-3.18-8.2,17.05,17.05,0,0,0-6.11-5.73,18.17,18.17,0,0,0-9.06-2.12,19.55,19.55,0,0,0-11.21,3.12q-4.62,3.12-7.06,9.89t-2.43,17.55q0,16.35,5.39,23.8t15.31,7.45a17,17,0,0,0,9.06-2.32,18.19,18.19,0,0,0,6.11-6.19,25.65,25.65,0,0,0,3.18-8.46h14.73a40.62,40.62,0,0,1-2.83,10.78,29.63,29.63,0,0,1-6,9.2,27.39,27.39,0,0,1-9.78,6.37,38.29,38.29,0,0,1-14,2.32q-11.42,0-19.58-5.25a33.85,33.85,0,0,1-12.56-14.91q-4.38-9.66-4.38-23t4.35-22.65a32.4,32.4,0,0,1,12.53-14.42Q1375.44,280.28,1386.9,280.29Z"/><path class="cls-3" d="M1459.09,365.5a28.92,28.92,0,0,1-14.79-3.65,24.58,24.58,0,0,1-9.78-10.46,35.84,35.84,0,0,1-3.47-16.4,37.23,37.23,0,0,1,3.36-16.29,25.33,25.33,0,0,1,9.66-10.89,31,31,0,0,1,29.82-.17,24.81,24.81,0,0,1,9.66,10.67A37.5,37.5,0,0,1,1487,335a36.77,36.77,0,0,1-3.24,15.86,25,25,0,0,1-9.46,10.75A28.12,28.12,0,0,1,1459.09,365.5Zm.06-10.61a11.87,11.87,0,0,0,7.94-2.64,15.57,15.57,0,0,0,4.64-7.23,32.84,32.84,0,0,0,1.53-10.43,35.36,35.36,0,0,0-1.35-10,15.37,15.37,0,0,0-4.47-7.37,12,12,0,0,0-8.29-2.78,12.48,12.48,0,0,0-8.06,2.54,15.24,15.24,0,0,0-4.76,7.12,32.16,32.16,0,0,0-1.57,10.52,34.38,34.38,0,0,0,1.4,10,16.16,16.16,0,0,0,4.56,7.46A12.13,12.13,0,0,0,1459.15,354.89Z"/><path class="cls-3" d="M1500.49,364.35V305.06h13.59v8.48a23.85,23.85,0,0,1,7-6.76q4.44-2.86,11.32-2.87a20.1,20.1,0,0,1,6.39,1.09,20.54,20.54,0,0,1,6,3.22,15.66,15.66,0,0,1,4.44,5.27,22.14,22.14,0,0,1,7.48-6.88,20.69,20.69,0,0,1,10.53-2.7,23.16,23.16,0,0,1,6.62,1,17.78,17.78,0,0,1,6.28,3.44,17.24,17.24,0,0,1,4.64,6.57,26.67,26.67,0,0,1,1.78,10.4v39h-13.93V327a13.29,13.29,0,0,0-1.55-6.94,8.82,8.82,0,0,0-4-3.59,12.94,12.94,0,0,0-5.19-1.05,14.92,14.92,0,0,0-5.13,1,10.49,10.49,0,0,0-4.53,3.21,9.15,9.15,0,0,0-1.86,6v38.7H1536.5V324.78a8.15,8.15,0,0,0-1.6-5.16,10.39,10.39,0,0,0-4-3.13,12.46,12.46,0,0,0-5-1.05,13.89,13.89,0,0,0-5.24,1.08,10.88,10.88,0,0,0-4.44,3.33,9,9,0,0,0-1.78,5.8v38.7Z"/><path class="cls-3" d="M1602.73,364.35V305.06h13.59v8.48a23.8,23.8,0,0,1,7-6.76,20.57,20.57,0,0,1,11.33-2.87,20.14,20.14,0,0,1,6.39,1.09,20.49,20.49,0,0,1,6,3.22,15.57,15.57,0,0,1,4.45,5.27,22,22,0,0,1,7.48-6.88,20.65,20.65,0,0,1,10.52-2.7,23.18,23.18,0,0,1,6.63,1,17.74,17.74,0,0,1,6.27,3.44,17.26,17.26,0,0,1,4.65,6.57,26.67,26.67,0,0,1,1.78,10.4v39h-13.94V327a13.39,13.39,0,0,0-1.54-6.94,8.92,8.92,0,0,0-4-3.59,12.94,12.94,0,0,0-5.19-1.05,14.84,14.84,0,0,0-5.13,1,10.49,10.49,0,0,0-4.53,3.21,9.1,9.1,0,0,0-1.87,6v38.7h-13.93V324.78a8.21,8.21,0,0,0-1.6-5.16,10.35,10.35,0,0,0-4.05-3.13,12.45,12.45,0,0,0-5-1.05,13.85,13.85,0,0,0-5.24,1.08,10.91,10.91,0,0,0-4.45,3.33,9.08,9.08,0,0,0-1.77,5.8v38.7Z"/><path class="cls-3" d="M1715.92,337.92a21.91,21.91,0,0,0,1.6,8.94,13.54,13.54,0,0,0,4.94,6.1,14,14,0,0,0,8.08,2.21,16.13,16.13,0,0,0,8.57-2.21,10.71,10.71,0,0,0,4.85-6.73h12.79a20.17,20.17,0,0,1-4.94,10.49,25.34,25.34,0,0,1-9.43,6.54,32,32,0,0,1-26.6-1.41,25.31,25.31,0,0,1-10.15-10.4,33.54,33.54,0,0,1-3.64-16.12,37.67,37.67,0,0,1,3.32-16.2,26.33,26.33,0,0,1,9.61-11.15,27.1,27.1,0,0,1,15.11-4.07q8.76,0,14.76,3.73a23.52,23.52,0,0,1,9.06,10.4,37.07,37.07,0,0,1,3.07,15.63v4.25Zm0-8.67h27.81a19.61,19.61,0,0,0-1.49-7.77,12.21,12.21,0,0,0-4.56-5.49,13.56,13.56,0,0,0-7.71-2,13,13,0,0,0-7.74,2.23,14.11,14.11,0,0,0-4.76,5.76A16.84,16.84,0,0,0,1715.92,329.25Z"/><path class="cls-3" d="M1771,364.35V305.06h13.36V317.9a21.92,21.92,0,0,1,4.1-7.53,18.24,18.24,0,0,1,6.28-4.8,19.19,19.19,0,0,1,9.86-1.55,3.66,3.66,0,0,1,1.44.41v13.36a5.11,5.11,0,0,0-1.63-.4,15.27,15.27,0,0,0-1.76-.12,27.15,27.15,0,0,0-7.59.34,14.42,14.42,0,0,0-5.56,2.33,10.23,10.23,0,0,0-3.42,4.13,13.85,13.85,0,0,0-1.14,5.81v34.47Z"/><path class="cls-3" d="M1841.67,303.91a26.11,26.11,0,0,1,12.22,2.75,22.16,22.16,0,0,1,8.45,7.64,24.29,24.29,0,0,1,3.82,11.05h-11.93a13.23,13.23,0,0,0-2-5.13,11.79,11.79,0,0,0-4.19-4,12.45,12.45,0,0,0-6.36-1.52,13.47,13.47,0,0,0-10.81,4.93q-4.15,4.94-4.16,15.14,0,9.4,4,15a13,13,0,0,0,11.3,5.56,11.61,11.61,0,0,0,6.28-1.63,13,13,0,0,0,4.13-4.08,14,14,0,0,0,2-4.9H1866a21.92,21.92,0,0,1-3.76,10.72,22.55,22.55,0,0,1-8.49,7.37,26.23,26.23,0,0,1-12.07,2.67,28.74,28.74,0,0,1-14.47-3.59,25.09,25.09,0,0,1-10-10.43,35.18,35.18,0,0,1-3.61-16.55,36.64,36.64,0,0,1,3.39-16.2,25.76,25.76,0,0,1,9.69-10.89A27.7,27.7,0,0,1,1841.67,303.91Z"/><path class="cls-3" d="M1888.8,337.92a21.91,21.91,0,0,0,1.61,8.94,13.52,13.52,0,0,0,4.93,6.1,14,14,0,0,0,8.08,2.21A16.17,16.17,0,0,0,1912,353a10.66,10.66,0,0,0,4.84-6.73h12.79a20.15,20.15,0,0,1-4.93,10.49,25.34,25.34,0,0,1-9.43,6.54,32,32,0,0,1-26.61-1.41,25.43,25.43,0,0,1-10.15-10.4,33.54,33.54,0,0,1-3.64-16.12,37.82,37.82,0,0,1,3.32-16.2A26.39,26.39,0,0,1,1887.8,308a27.13,27.13,0,0,1,15.11-4.07q8.77,0,14.76,3.73a23.4,23.4,0,0,1,9.06,10.4,37.07,37.07,0,0,1,3.07,15.63v4.25Zm0-8.67h27.81a19.43,19.43,0,0,0-1.49-7.77,12.19,12.19,0,0,0-4.55-5.49,13.59,13.59,0,0,0-7.72-2,13,13,0,0,0-7.74,2.23,14.19,14.19,0,0,0-4.76,5.76A16.84,16.84,0,0,0,1888.8,329.25Z"/><path class="cls-3" d="M1374.23,480.18q-11.76,0-18.47-8.08t-6.7-23a43.5,43.5,0,0,1,2.72-16.14,22.92,22.92,0,0,1,8-10.61,22.21,22.21,0,0,1,13.16-3.76,23.68,23.68,0,0,1,6.68.89,22.77,22.77,0,0,1,5.36,2.33,19,19,0,0,1,4,3.15,16.54,16.54,0,0,1,2.56,3.44V393.82h14V479h-10.32l-1.55-12.16a22.85,22.85,0,0,1-2,4.45,17.27,17.27,0,0,1-3.61,4.33,18.07,18.07,0,0,1-5.65,3.27A23.36,23.36,0,0,1,1374.23,480.18Zm2.87-10.26q7.5,0,11-4.91t3.47-16.25a34.9,34.9,0,0,0-1.58-10.9,13.09,13.09,0,0,0-4.65-6.65,13.51,13.51,0,0,0-8-2.23,13.19,13.19,0,0,0-10.38,4.64q-4.08,4.65-4.07,15.14t3.72,15.79A12.11,12.11,0,0,0,1377.1,469.92Z"/><path class="cls-3" d="M1446.6,480.18a27.42,27.42,0,0,1-8.4-1.29,23.06,23.06,0,0,1-7.26-3.79,17.88,17.88,0,0,1-7-14.7V419.74h14v39.05a10.72,10.72,0,0,0,3.07,7.91q3.06,3.1,9.26,3.1a13.16,13.16,0,0,0,9-3q3.38-2.94,3.38-8.51V419.74h13.88V479H1465.8l-1.54-11.58a15.46,15.46,0,0,1-3.82,7.65,15.06,15.06,0,0,1-6.36,3.93A24.91,24.91,0,0,1,1446.6,480.18Z"/><path class="cls-3" d="M1555.71,395a34.24,34.24,0,0,1,16.17,3.7,30.93,30.93,0,0,1,11.39,10,29.94,29.94,0,0,1,5.13,14.05h-14.74a22.63,22.63,0,0,0-3.18-8.21,17.14,17.14,0,0,0-6.11-5.73,18.17,18.17,0,0,0-9.06-2.12,19.47,19.47,0,0,0-11.21,3.13q-4.62,3.1-7,9.88t-2.44,17.56q0,16.33,5.39,23.79t15.31,7.45a17,17,0,0,0,9.06-2.32,18.1,18.1,0,0,0,6.11-6.19,25.43,25.43,0,0,0,3.18-8.46h14.74a40.92,40.92,0,0,1-2.84,10.78,29.5,29.5,0,0,1-6,9.21,27.5,27.5,0,0,1-9.78,6.36,38.08,38.08,0,0,1-14,2.32q-11.42,0-19.58-5.24A33.88,33.88,0,0,1,1523.57,460q-4.38-9.64-4.38-23t4.36-22.65A32.37,32.37,0,0,1,1536.07,400Q1544.25,395,1555.71,395Z"/><path class="cls-3" d="M1618.84,480.18a23.85,23.85,0,0,1-10.18-2.1,16.47,16.47,0,0,1-7.05-6,17.19,17.19,0,0,1-2.55-9.55q0-9.81,7.08-14.8t22.62-5.21l8.83-.23v-4a9.72,9.72,0,0,0-2.78-7.37c-1.85-1.77-4.73-2.64-8.62-2.6a16.5,16.5,0,0,0-7.89,2,9.77,9.77,0,0,0-4.73,6.62H1601.7a17.73,17.73,0,0,1,3.53-10.17,18.85,18.85,0,0,1,8.74-6.14,37.44,37.44,0,0,1,12.84-2q8.49,0,13.82,2.24a16,16,0,0,1,7.86,6.45,19.51,19.51,0,0,1,2.52,10.18V479h-11.75l-1.09-10.66q-3.21,6.7-8.12,9.25A23.78,23.78,0,0,1,1618.84,480.18Zm4.54-9.46a14.42,14.42,0,0,0,5.1-.94,17.06,17.06,0,0,0,4.58-2.59,13.9,13.9,0,0,0,3.3-3.64,7.9,7.9,0,0,0,1.23-4.19V450l-7.28.13a37.55,37.55,0,0,0-9.4,1.14,13.21,13.21,0,0,0-6.28,3.47,8.8,8.8,0,0,0-2.27,6.33,8.6,8.6,0,0,0,3.16,7.09A12.09,12.09,0,0,0,1623.38,470.72Z"/><path class="cls-3" d="M1668.5,479V419.74h13.65v8.48a19.29,19.29,0,0,1,3.76-4.4,18.46,18.46,0,0,1,5.88-3.45,23.16,23.16,0,0,1,8.2-1.32,24.17,24.17,0,0,1,10.23,2.18,17.53,17.53,0,0,1,7.63,6.82q2.89,4.67,2.89,12v39h-14V441.7c0-3.89-1.08-6.8-3.22-8.68a11.76,11.76,0,0,0-8.08-2.84,17.73,17.73,0,0,0-6.31,1.12,11.15,11.15,0,0,0-4.84,3.38,8.55,8.55,0,0,0-1.87,5.65V479Z"/><path class="cls-3" d="M1753.31,480.18a23.79,23.79,0,0,1-10.18-2.1,16.47,16.47,0,0,1-7.05-6,17.19,17.19,0,0,1-2.55-9.55q0-9.81,7.08-14.8t22.62-5.21l8.83-.23v-4a9.75,9.75,0,0,0-2.78-7.37c-1.86-1.77-4.73-2.64-8.63-2.6a16.46,16.46,0,0,0-7.88,2,9.78,9.78,0,0,0-4.74,6.62h-11.87a17.8,17.8,0,0,1,3.53-10.17,19,19,0,0,1,8.74-6.14,37.5,37.5,0,0,1,12.85-2q8.49,0,13.82,2.24a16,16,0,0,1,7.85,6.45,19.42,19.42,0,0,1,2.53,10.18V479h-11.76l-1.09-10.66q-3.21,6.7-8.11,9.25A23.84,23.84,0,0,1,1753.31,480.18Zm4.53-9.46a14.42,14.42,0,0,0,5.1-.94,17.27,17.27,0,0,0,4.59-2.59,14.08,14.08,0,0,0,3.3-3.64,7.9,7.9,0,0,0,1.23-4.19V450l-7.28.13a37.69,37.69,0,0,0-9.41,1.14,13.26,13.26,0,0,0-6.28,3.47,8.79,8.79,0,0,0-2.26,6.33,8.62,8.62,0,0,0,3.15,7.09A12.09,12.09,0,0,0,1757.84,470.72Z"/><path class="cls-3" d="M1824.69,480.18q-11.75,0-18.46-8.08t-6.71-23a43.5,43.5,0,0,1,2.73-16.14,23,23,0,0,1,8-10.61,22.25,22.25,0,0,1,13.16-3.76,23.58,23.58,0,0,1,6.68.89,22.41,22.41,0,0,1,5.36,2.33,19.35,19.35,0,0,1,4,3.15,16.13,16.13,0,0,1,2.55,3.44V393.82h14V479h-10.32l-1.55-12.16a23.38,23.38,0,0,1-2,4.45,17.53,17.53,0,0,1-3.62,4.33,18,18,0,0,1-5.64,3.27A23.42,23.42,0,0,1,1824.69,480.18Zm2.87-10.26q7.51,0,11-4.91t3.47-16.25a34.61,34.61,0,0,0-1.58-10.9,13.08,13.08,0,0,0-4.64-6.65,13.53,13.53,0,0,0-8.06-2.23,13.19,13.19,0,0,0-10.37,4.64q-4.08,4.65-4.08,15.14t3.73,15.79A12.08,12.08,0,0,0,1827.56,469.92Z"/><path class="cls-3" d="M1889.78,480.18a23.86,23.86,0,0,1-10.19-2.1,16.53,16.53,0,0,1-7-6,17.19,17.19,0,0,1-2.55-9.55q0-9.81,7.09-14.8t22.61-5.21l8.84-.23v-4a9.75,9.75,0,0,0-2.78-7.37c-1.86-1.77-4.73-2.64-8.63-2.6a16.53,16.53,0,0,0-7.89,2,9.8,9.8,0,0,0-4.73,6.62h-11.87a17.8,17.8,0,0,1,3.53-10.17,18.9,18.9,0,0,1,8.74-6.14,37.44,37.44,0,0,1,12.84-2q8.49,0,13.82,2.24a16,16,0,0,1,7.86,6.45,19.51,19.51,0,0,1,2.52,10.18V479h-11.75l-1.09-10.66q-3.21,6.7-8.11,9.25A23.84,23.84,0,0,1,1889.78,480.18Zm4.53-9.46a14.42,14.42,0,0,0,5.1-.94,17.06,17.06,0,0,0,4.58-2.59,13.9,13.9,0,0,0,3.3-3.64,7.91,7.91,0,0,0,1.24-4.19V450l-7.28.13a37.63,37.63,0,0,0-9.41,1.14,13.26,13.26,0,0,0-6.28,3.47,8.79,8.79,0,0,0-2.26,6.33,8.6,8.6,0,0,0,3.15,7.09A12.09,12.09,0,0,0,1894.31,470.72Z"/><path class="cls-4" d="M71.65,158.51A72.49,72.49,0,0,0,0,86.05V.48a158,158,0,0,1,158,158,158,158,0,0,1-158,158V231a72.48,72.48,0,0,0,71.65-72.46"/><path class="cls-5" d="M408.24,322.3a72.48,72.48,0,0,1,71.65-72.46V164.26a158,158,0,1,0,0,316.07V394.76a72.48,72.48,0,0,1-71.65-72.46"/><path class="cls-6" d="M322.56,71.72A72.49,72.49,0,0,1,250.1.08H164.53a158,158,0,0,0,158,158,158,158,0,0,0,158-158H395a72.47,72.47,0,0,1-72.46,71.64"/></g></svg>