<svg xmlns="http://www.w3.org/2000/svg" viewBox="0 0 17 16"><defs><style>.cls-1{fill:#fff;}</style></defs><title>instagram-white</title><g id="Layer_2" data-name="Layer 2"><g id="Layer_1-2" data-name="Layer 1"><g id="For-dev"><path id="instagram-white" class="cls-1" d="M8.5,3.9A4.23,4.23,0,0,0,4.14,8,4.23,4.23,0,0,0,8.5,12.1,4.23,4.23,0,0,0,12.86,8,4.23,4.23,0,0,0,8.5,3.9Zm0,6.77A2.76,2.76,0,0,1,5.67,8,2.76,2.76,0,0,1,8.5,5.33,2.76,2.76,0,0,1,11.33,8,2.76,2.76,0,0,1,8.5,10.67Zm5.55-6.94a1,1,0,0,1-2,0,1,1,0,0,1,2,0Zm2.89,1a4.58,4.58,0,0,0-1.37-3.35A5.21,5.21,0,0,0,12,.06C10.6,0,6.4,0,5,.06A5.23,5.23,0,0,0,1.43,1.35,4.62,4.62,0,0,0,.06,4.7C0,6,0,10,.06,11.3a4.58,4.58,0,0,0,1.37,3.35A5.21,5.21,0,0,0,5,15.94c1.41.08,5.61.08,7,0a5.21,5.21,0,0,0,3.56-1.29,4.62,4.62,0,0,0,1.37-3.35C17,10,17,6,16.94,4.7Zm-1.81,8a2.79,2.79,0,0,1-1.62,1.52,20.23,20.23,0,0,1-5,.32,20.26,20.26,0,0,1-5-.32,2.8,2.8,0,0,1-1.61-1.52C1.43,11.66,1.54,9.16,1.54,8s-.1-3.67.34-4.72A2.75,2.75,0,0,1,3.49,1.76a20.26,20.26,0,0,1,5-.32c1.24,0,3.9-.09,5,.32a2.79,2.79,0,0,1,1.62,1.52c.44,1.06.34,3.56.34,4.72S15.57,11.67,15.13,12.72Z"/></g></g></g></svg>