<svg xmlns="http://www.w3.org/2000/svg" viewBox="0 0 16 13"><defs><style>.cls-1{fill:#069;}</style></defs><title>twitter-blue</title><g id="Layer_2" data-name="Layer 2"><g id="Layer_1-2" data-name="Layer 1"><g id="For-dev"><path id="twitter-blue" class="cls-1" d="M14.36,3.24c0,.14,0,.28,0,.43A9.27,9.27,0,0,1,5,13a9.3,9.3,0,0,1-5-1.47,6.85,6.85,0,0,0,.79,0,6.57,6.57,0,0,0,4.07-1.4A3.28,3.28,0,0,1,1.8,7.89a4.1,4.1,0,0,0,.62.05,3.49,3.49,0,0,0,.86-.11A3.28,3.28,0,0,1,.65,4.61v0A3.35,3.35,0,0,0,2.13,5,3.3,3.3,0,0,1,.67,2.25,3.22,3.22,0,0,1,1.12.6,9.3,9.3,0,0,0,7.88,4a3.74,3.74,0,0,1-.08-.75A3.28,3.28,0,0,1,13.47,1a6.56,6.56,0,0,0,2.08-.8,3.21,3.21,0,0,1-1.44,1.81A6.37,6.37,0,0,0,16,1.54,7.36,7.36,0,0,1,14.36,3.24Z"/></g></g></g></svg>