<svg xmlns="http://www.w3.org/2000/svg" viewBox="0 0 26 26"><title>black-close</title><g id="Layer_2" data-name="Layer 2"><g id="Layer_1-2" data-name="Layer 1"><g id="For-dev"><g id="black-close"><path id="Line-7" d="M23.23.48a1.61,1.61,0,0,1,2.29,0,1.62,1.62,0,0,1,.14,2.14l-.14.15L2.77,25.52A1.62,1.62,0,0,1,.34,23.38l.14-.15Z"/><path id="Line-7-Copy" d="M.48.48A1.62,1.62,0,0,1,2.62.34l.15.14L25.52,23.23a1.62,1.62,0,0,1-2.14,2.43l-.15-.14L.48,2.77A1.61,1.61,0,0,1,.48.48Z"/></g></g></g></g></svg>