<svg xmlns="http://www.w3.org/2000/svg" viewBox="0 0 21 38"><defs><style>.cls-1{fill:#00B9B4;}</style></defs><title>cost-green</title><g id="Layer_2" data-name="Layer 2"><g id="Layer_1-2" data-name="Layer 1"><g id="For-dev"><path id="cost-green" class="cls-1" d="M11.3,16.68c-4.68-1.25-6.18-2.54-6.18-4.54,0-2.3,2.08-3.91,5.57-3.91,3.67,0,5,1.8,5.15,4.44H20.4a8.37,8.37,0,0,0-6.62-8V0H7.59V4.56C3.59,5.45.37,8.11.37,12.18c0,4.88,3.94,7.31,9.7,8.72C15.22,22.17,16.26,24,16.26,26c0,1.45-1,3.78-5.57,3.78-4.25,0-5.92-1.95-6.15-4.44H0C.25,30,3.63,32.55,7.59,33.42V38h6.19V33.46C17.8,32.68,21,30.29,21,26,21,20,16,17.92,11.3,16.68Z"/></g></g></g></svg>
