<?xml version="1.0" encoding="utf-8"?>
<svg width="18px" height="21px" viewBox="0 0 18 21" version="1.1" xmlns:xlink="http://www.w3.org/1999/xlink" xmlns="http://www.w3.org/2000/svg">
  <desc>Created with Lunacy</desc>
  <g id="Group-5" transform="translate(0.6000977 0.6000977)">
    <g id="noun_Download_202597" transform="translate(2 0)">
      <path d="M5.53306 14.8081C5.56364 14.8385 5.59762 14.8658 5.63386 14.8898C5.65009 14.9007 5.66784 14.9082 5.68483 14.9172C5.70559 14.9285 5.7256 14.9412 5.74788 14.9502C5.76977 14.9592 5.79243 14.9645 5.81508 14.9708C5.83395 14.9765 5.8517 14.9836 5.87133 14.9873C5.95665 15.0042 6.04462 15.0042 6.13032 14.9873C6.14958 14.9836 6.1677 14.9765 6.18657 14.9708C6.20923 14.9645 6.23188 14.9592 6.25378 14.9502C6.27605 14.9412 6.29606 14.9285 6.31683 14.9172C6.33381 14.9078 6.35156 14.9007 6.36779 14.8898C6.40404 14.8658 6.43801 14.8385 6.4686 14.8081L11.8066 9.50467C12.0645 9.24854 12.0645 8.83265 11.8066 8.57652C11.5487 8.32038 11.1304 8.32038 10.8722 8.57652L6.66076 12.7598C6.66076 9.13341 6.66076 0.656271 6.66076 0.656271L6.66076 0.656271C6.66076 0.294009 6.36477 0 6.00007 0C5.63537 0 5.33938 0.294009 5.33938 0.656271L5.33938 0.656271C5.33938 0.656271 5.33938 9.13266 5.33938 12.7598L1.12794 8.57652C0.870084 8.32038 0.451771 8.32038 0.193535 8.57652C-0.0647006 8.83265 -0.064323 9.24854 0.193535 9.50467L5.53306 14.8081Z" id="Path" fill="#000000" stroke="none" />
    </g>
    <path d="M0.5 0.5L15.5 0.5" transform="translate(0 18)" id="Line-5" fill="none" stroke="#000000" stroke-width="1.2" stroke-linecap="round" />
  </g>
</svg>