<svg xmlns="http://www.w3.org/2000/svg" viewBox="0 0 19 19"><defs><style>.cls-1{fill:#fff;}</style></defs><title>external-link-white</title><g id="Layer_2" data-name="Layer 2"><g id="Layer_1-2" data-name="Layer 1"><g id="For-dev"><path id="external-link-white" class="cls-1" d="M8.47,3a.88.88,0,0,1,.11,1.75H2.78a1,1,0,0,0-1,.91V16.22a1,1,0,0,0,.91,1H13.22a1,1,0,0,0,1-.91V10.53A.87.87,0,0,1,16,10.42v5.8A2.77,2.77,0,0,1,13.41,19H2.78A2.77,2.77,0,0,1,0,16.41V5.78A2.77,2.77,0,0,1,2.59,3H8.47Zm9.68-3A.84.84,0,0,1,19,.74V6.15a.85.85,0,0,1-1.69.11V3L7.53,12.74a.9.9,0,0,1-1.35-1.17l.08-.1L16,1.7H12.85A.85.85,0,0,1,12,1V.85A.84.84,0,0,1,12.74,0h5.41Z"/></g></g></g></svg>