<?xml version="1.0" encoding="utf-8"?>
<svg width="23px" height="16px" viewBox="0 0 23 16" version="1.1" xmlns:xlink="http://www.w3.org/1999/xlink" xmlns="http://www.w3.org/2000/svg">
  <desc>Created with Lunacy</desc>
  <g id="Group-3">
    <g id="arrow-black" transform="translate(13.6 0)">
      <path d="M13.3412 8.38342C13.7857 8.82457 14.5064 8.82457 14.9509 8.38342C15.3954 7.94228 15.3954 7.22704 14.9509 6.78589L8.44694 0.330861C8.00245 -0.110287 7.28179 -0.110287 6.8373 0.330861L0.333367 6.78589C-0.111122 7.22704 -0.111122 7.94228 0.333367 8.38342C0.777857 8.82457 1.49852 8.82457 1.94301 8.38342L7.64523 2.72408L13.3412 8.38342Z" transform="matrix(-4.371139E-08 1 -1 -4.371139E-08 8.999259 0.7150269)" id="arrow" fill="#ffffff" stroke="none" />
    </g>
    <path d="M20.1 0C20.7075 0 21.2 0.492487 21.2 1.1C21.2 1.66701 20.771 2.13382 20.2199 2.19355L20.1 2.2L1.1 2.2C0.492487 2.2 0 1.70751 0 1.1C0 0.532988 0.429011 0.0661761 0.980143 0.00645465L1.1 0L20.1 0Z" transform="translate(3.392842E-13 7.4)" id="Line" fill="#ffffff" stroke="none" />
  </g>
</svg>