<svg xmlns="http://www.w3.org/2000/svg" viewBox="0 0 40 27"><defs><style>.cls-1{fill:#164361;fill-rule:evenodd;}</style></defs><title>mobile-menu-open</title><g id="Layer_2" data-name="Layer 2"><g id="Layer_1-2" data-name="Layer 1"><g id="For-dev"><g id="mobile-menu-open"><path id="Rectangle-Copy-3" class="cls-1" d="M1.5,0h37A1.5,1.5,0,0,1,40,1.5h0A1.5,1.5,0,0,1,38.5,3H1.5A1.5,1.5,0,0,1,0,1.5H0A1.5,1.5,0,0,1,1.5,0Z"/><path id="Rectangle-Copy-4" class="cls-1" d="M1.5,12h37A1.5,1.5,0,0,1,40,13.5h0A1.5,1.5,0,0,1,38.5,15H1.5A1.5,1.5,0,0,1,0,13.5H0A1.5,1.5,0,0,1,1.5,12Z"/><path id="Rectangle-Copy-5" class="cls-1" d="M1.5,24h37A1.5,1.5,0,0,1,40,25.5h0A1.5,1.5,0,0,1,38.5,27H1.5A1.5,1.5,0,0,1,0,25.5H0A1.5,1.5,0,0,1,1.5,24Z"/></g></g></g></g></svg>