<?xml version="1.0" encoding="utf-8"?>
<svg width="32px" height="19px" viewBox="0 0 32 19" version="1.1" xmlns:xlink="http://www.w3.org/1999/xlink" xmlns="http://www.w3.org/2000/svg">
  <desc>Created with Lunacy</desc>
  <g id="noun_Attachment_1683903" transform="matrix(4.371139E-08 1 1 -4.371139E-08 0 0)">
    <path d="M17.3 6.2L17.3 11L17.3 17.3L17.3 22.1C17.3 27.9 14.2 31.3 8.7 31.3C3.1 31.3 0 28 0 22.1L0 6.2C0 5.6 0.4 5.2 1 5.2C1.6 5.2 2 5.6 2 6.2L2 22.1C2 26.9 4.2 29.3 8.7 29.3C14.2 29.3 15.3 25.4 15.3 22.1L15.3 17.3L15.3 11L15.3 6.2C15.3 4.4 14 2 11.1 2C8 2 6.9 4.6 6.9 6.2L6.9 13.6L6.9 20.4C6.9 21.2 6.9 22.5 7.5 23.1C7.7 23.4 8.1 23.5 8.6 23.5C9.3 23.5 9.7 23.4 10 23C10.6 22.4 10.6 21.2 10.6 20.4L10.6 20.1L10.6 11C10.6 10.4 11 10 11.6 10C12.2 10 12.6 10.4 12.6 11L12.6 20.4C12.6 21.5 12.6 23.3 11.4 24.5C10.7 25.2 9.8 25.5 8.5 25.5C7.4 25.5 6.6 25.2 5.9 24.5C4.7 23.3 4.7 21.5 4.8 20.4L4.8 20.2L4.8 13.6L4.8 9.8L4.8 6.2C4.8 3.1 7.1 0 11 0C14.9 0 17.3 3.1 17.3 6.2Z" transform="translate(0.9 0.4)" id="Path" fill="" stroke="none" />
  </g>
</svg>