<svg xmlns="http://www.w3.org/2000/svg" viewBox="0 0 32 36"><defs><style>.cls-1{fill:#069;}</style></defs><title>pdf-blue</title><g id="Layer_2" data-name="Layer 2"><g id="Layer_1-2" data-name="Layer 1"><g id="For-dev"><path id="pdf-blue" class="cls-1" d="M20.33,0a4.45,4.45,0,0,1,2.82,1.12h0l7.68,7.41A4.15,4.15,0,0,1,32,11.25h0V32.62A3.44,3.44,0,0,1,28.5,36H7.5A3.44,3.44,0,0,1,4,32.62a1.17,1.17,0,0,1,2.33,0A1.16,1.16,0,0,0,7.5,33.75h21a1.15,1.15,0,0,0,1.17-1.13h0V13.5a2.3,2.3,0,0,0-2.34-2.25H23a2.59,2.59,0,0,1-2.63-2.53h0V4.5A2.29,2.29,0,0,0,18,2.25H7.5A1.16,1.16,0,0,0,6.33,3.38h0V14.62a1.17,1.17,0,0,1-2.33,0H4V3.38A3.44,3.44,0,0,1,7.5,0H20.33Zm5.49,17a1.13,1.13,0,0,1,1.12,1.14h0V29.57a1.14,1.14,0,0,1-1.12,1.14H1.12A1.14,1.14,0,0,1,0,29.57H0V18.14A1.14,1.14,0,0,1,1.12,17h24.7ZM7.58,20.88H5.5a.63.63,0,0,0-.61.63h0v5.14a.62.62,0,0,0,.61.63.57.57,0,0,0,.58-.63h0v-1.2h1.5A2.15,2.15,0,0,0,9.8,23.2a2.16,2.16,0,0,0-2.22-2.32Zm6,.08H11.55a.62.62,0,0,0-.62.57h0v5.18a.57.57,0,0,0,.62.57h2.14c3.93,0,4-6.32-.08-6.32Zm8.08,0H18.54a.57.57,0,0,0-.64.57h0v5.18a.58.58,0,0,0,.64.57.55.55,0,0,0,.54-.57h0V24.8h2.28a.63.63,0,0,0,.65-.55.7.7,0,0,0-.65-.65H19.08V22.15h2.61a.63.63,0,0,0,.63-.62.57.57,0,0,0-.63-.57Zm-8.08,1.11c2.53,0,2.42,4.1,0,4.1H12.12v-4.1Zm-6,0A1.14,1.14,0,0,1,8.66,23.2a1.12,1.12,0,0,1-1.08,1.1H6.08V22Z"/></g></g></g></svg>