<svg xmlns="http://www.w3.org/2000/svg" viewBox="0 0 32 32"><defs><style>.cls-1{fill:#00B9B4;}</style></defs><title>phone-green</title><g id="Layer_2" data-name="Layer 2"><g id="Layer_1-2" data-name="Layer 1"><g id="For-dev"><path id="phone-green" class="cls-1" d="M6.44,13.85A26.88,26.88,0,0,0,18.15,25.56l3.91-3.91a1.76,1.76,0,0,1,1.82-.42,20.48,20.48,0,0,0,6.34,1A1.78,1.78,0,0,1,32,24v6.2A1.78,1.78,0,0,1,30.22,32,30.22,30.22,0,0,1,0,1.78,1.78,1.78,0,0,1,1.78,0H8A1.78,1.78,0,0,1,9.78,1.78a20.09,20.09,0,0,0,1,6.34,1.8,1.8,0,0,1-.44,1.82Z"/></g></g></g></svg>
