<svg xmlns="http://www.w3.org/2000/svg" viewBox="0 0 23 23"><defs><style>.cls-1{fill:#069;}</style></defs><title>search-blue</title><g id="Layer_2" data-name="Layer 2"><g id="Layer_1-2" data-name="Layer 1"><g id="For-dev"><path id="search-blue" class="cls-1" d="M10.06,0a10,10,0,0,1,8.21,15.84l-.08.11,4.34,4.37a1.54,1.54,0,0,1,.21,2l-.09.12-.11.12a1.49,1.49,0,0,1-1.1.48,1.56,1.56,0,0,1-1-.36l-.12-.11L16,18.17l-.11.08a10,10,0,0,1-5.06,1.82l-.37,0h-.37a10.05,10.05,0,1,1,0-20.1Zm0,3.12A6.93,6.93,0,1,0,17,10.05,6.95,6.95,0,0,0,10.06,3.12Z"/></g></g></g></svg>